M48
; DRILL file {KiCad 8.0.7-8.0.7-0~ubuntu22.04.1} date 2025-01-26T09:17:30+0100
; FORMAT={-:-/ absolute / inch / decimal}
; #@! TF.CreationDate,2025-01-26T09:17:30+01:00
; #@! TF.GenerationSoftware,Kicad,Pcbnew,8.0.7-8.0.7-0~ubuntu22.04.1
; #@! TF.FileFunction,Plated,1,2,PTH
FMAT,2
INCH
; #@! TA.AperFunction,Plated,PTH,ViaDrill
T1C0.0118
; #@! TA.AperFunction,Plated,PTH,ViaDrill
T2C0.0236
; #@! TA.AperFunction,Plated,PTH,ComponentDrill
T3C0.0315
; #@! TA.AperFunction,Plated,PTH,ViaDrill
T4C0.0394
; #@! TA.AperFunction,Plated,PTH,ComponentDrill
T5C0.0394
; #@! TA.AperFunction,Plated,PTH,ComponentDrill
T6C0.0402
; #@! TA.AperFunction,Plated,PTH,ComponentDrill
T7C0.0469
; #@! TA.AperFunction,Plated,PTH,ComponentDrill
T8C0.0709
; #@! TA.AperFunction,Plated,PTH,ComponentDrill
T9C0.1260
%
G90
G05
T1
X2.79Y-4.61
X2.79Y-4.72
X3.51Y-3.46
X3.53Y-4.32
X4.11Y-5.87
X4.27Y-5.73
X4.39Y-5.87
X4.65Y-3.84
X4.66Y-5.87
X4.94Y-5.87
T2
X2.79Y-4.14
X2.854Y-5.98
X3.466Y-5.156
X3.91Y-2.78
X4.34Y-4.22
X4.925Y-5.325
X5.292Y-3.49
X5.35Y-3.21
T3
X3.6175Y-2.51
X3.7553Y-2.51
X4.0864Y-2.585
X4.2242Y-2.585
X4.5072Y-1.6411
X4.5072Y-1.7789
X4.5072Y-2.085
X4.5072Y-2.2228
T4
X2.66Y-6.05
T5
X3.0Y-1.6
X3.0Y-1.7
X3.1Y-6.2
X3.1Y-6.3
X3.1Y-6.4
X3.1Y-6.5
X3.1Y-6.6
X3.2Y-6.2
X3.2Y-6.3
X3.2Y-6.4
X3.2Y-6.5
X3.2Y-6.6
X3.2822Y-2.21
X3.3Y-6.2
X3.3Y-6.3
X3.3Y-6.4
X3.3Y-6.5
X3.3Y-6.6
X3.3822Y-2.21
X3.4Y-6.2
X3.4Y-6.3
X3.4Y-6.4
X3.4Y-6.5
X3.4Y-6.6
X3.4822Y-2.21
X3.5Y-6.2
X3.5Y-6.3
X3.5Y-6.4
X3.5Y-6.5
X3.5Y-6.6
X3.6Y-6.2
X3.6Y-6.3
X3.6Y-6.4
X3.6Y-6.5
X3.6Y-6.6
X3.7Y-6.2
X3.7Y-6.3
X3.7Y-6.4
X3.7Y-6.5
X3.7Y-6.6
X3.8Y-6.2
X3.8Y-6.3
X3.8Y-6.4
X3.8Y-6.5
X3.8Y-6.6
X3.9Y-6.2
X3.9Y-6.3
X3.9Y-6.4
X3.9Y-6.5
X3.9Y-6.6
X3.9072Y-1.6405
X3.9072Y-2.0688
X4.0Y-6.2
X4.0Y-6.3
X4.0Y-6.4
X4.0Y-6.5
X4.0Y-6.6
X4.0072Y-1.6405
X4.0072Y-2.0688
X4.1Y-6.2
X4.1Y-6.3
X4.1Y-6.4
X4.1Y-6.5
X4.1Y-6.6
X4.1072Y-1.6405
X4.1072Y-2.0688
X4.2Y-6.2
X4.2Y-6.3
X4.2Y-6.4
X4.2Y-6.5
X4.2Y-6.6
X4.3Y-6.2
X4.3Y-6.3
X4.3Y-6.4
X4.3Y-6.5
X4.3Y-6.6
X4.4Y-6.2
X4.4Y-6.3
X4.4Y-6.4
X4.4Y-6.5
X4.4Y-6.6
X4.5Y-6.2
X4.5Y-6.3
X4.5Y-6.4
X4.5Y-6.5
X4.5Y-6.6
X4.6Y-6.2
X4.6Y-6.3
X4.6Y-6.4
X4.6Y-6.5
X4.6Y-6.6
X4.7Y-6.2
X4.7Y-6.3
X4.7Y-6.4
X4.7Y-6.5
X4.7Y-6.6
X4.8Y-6.2
X4.8Y-6.3
X4.8Y-6.4
X4.8Y-6.5
X4.8Y-6.6
X4.8364Y-1.885
X4.8364Y-1.985
X4.9Y-6.2
X4.9Y-6.3
X4.9Y-6.4
X4.9Y-6.5
X4.9Y-6.6
X5.0Y-6.2
X5.0Y-6.3
X5.0Y-6.4
X5.0Y-6.5
X5.0Y-6.6
X5.0899Y-2.11
X5.09Y-1.5873
X5.09Y-1.7187
X5.09Y-1.85
X5.09Y-1.98
X5.09Y-2.24
X5.09Y-2.37
X5.1Y-6.2
X5.1Y-6.3
X5.1Y-6.4
X5.1Y-6.5
X5.1Y-6.6
X5.1899Y-2.11
X5.19Y-1.5873
X5.19Y-1.7187
X5.19Y-1.85
X5.19Y-1.98
X5.19Y-2.24
X5.19Y-2.37
X5.2Y-6.2
X5.2Y-6.3
X5.2Y-6.4
X5.2Y-6.5
X5.2Y-6.6
X5.2899Y-2.11
X5.29Y-1.5873
X5.29Y-1.7187
X5.29Y-1.85
X5.29Y-1.98
X5.29Y-2.24
X5.29Y-2.37
X5.3Y-6.2
X5.3Y-6.3
X5.3Y-6.4
X5.3Y-6.5
X5.3Y-6.6
X5.5Y-1.6
X5.5Y-1.7
T6
X3.0Y-2.6998
X3.0Y-2.7998
X3.0Y-2.8998
X3.0Y-2.9998
X3.1Y-2.6998
X3.1Y-2.7998
X3.1Y-2.8998
X3.1Y-2.9998
X3.3Y-3.0998
X3.3Y-3.1998
X3.3Y-3.2998
X3.3Y-3.3998
X3.3Y-3.4998
X3.3Y-3.5998
X3.3Y-3.6998
X3.3Y-3.7998
X3.3Y-3.9998
X3.3Y-4.0998
X3.3Y-4.1998
X3.3Y-4.2998
X3.3Y-4.3998
X3.3Y-4.4998
X3.3Y-4.5998
X3.3Y-4.6998
X3.3Y-4.7998
X3.3Y-4.8998
X3.3Y-4.9998
X3.3Y-5.0998
X3.3Y-5.1998
X3.3Y-5.2998
X3.3Y-5.3998
X3.4Y-3.0998
X3.4Y-3.1998
X3.4Y-3.2998
X3.4Y-3.3998
X3.4Y-3.4998
X3.4Y-3.5998
X3.4Y-3.6998
X3.4Y-3.7998
X3.4Y-3.9998
X3.4Y-4.0998
X3.4Y-4.1998
X3.4Y-4.2998
X3.4Y-4.3998
X3.4Y-4.4998
X3.4Y-4.5998
X3.4Y-4.6998
X3.4Y-4.7998
X3.4Y-4.8998
X3.4Y-4.9998
X3.4Y-5.0998
X3.4Y-5.1998
X3.4Y-5.2998
X3.4Y-5.3998
X5.1Y-2.7398
X5.1Y-2.8398
X5.1Y-2.9398
X5.1Y-3.0398
X5.1Y-3.1398
X5.1Y-3.2398
X5.1Y-3.3398
X5.1Y-3.4398
X5.1Y-3.5398
X5.1Y-3.6398
X5.1Y-3.7998
X5.1Y-3.8998
X5.1Y-3.9998
X5.1Y-4.0998
X5.1Y-4.1998
X5.1Y-4.2998
X5.1Y-4.3998
X5.1Y-4.4998
X5.1Y-4.5998
X5.1Y-4.6998
X5.1Y-4.7998
X5.1Y-4.8998
X5.1Y-4.9998
X5.1Y-5.0998
X5.1Y-5.1998
X5.1Y-5.2998
X5.1Y-5.3998
X5.2Y-2.7398
X5.2Y-2.8398
X5.2Y-2.9398
X5.2Y-3.0398
X5.2Y-3.1398
X5.2Y-3.2398
X5.2Y-3.3398
X5.2Y-3.4398
X5.2Y-3.5398
X5.2Y-3.6398
X5.2Y-3.7998
X5.2Y-3.8998
X5.2Y-3.9998
X5.2Y-4.0998
X5.2Y-4.1998
X5.2Y-4.2998
X5.2Y-4.3998
X5.2Y-4.4998
X5.2Y-4.5998
X5.2Y-4.6998
X5.2Y-4.7998
X5.2Y-4.8998
X5.2Y-4.9998
X5.2Y-5.0998
X5.2Y-5.1998
X5.2Y-5.2998
X5.2Y-5.3998
T7
X2.6756Y-3.8789
X2.6756Y-3.9789
X2.6756Y-4.0789
X2.6756Y-4.3539
X2.6756Y-4.4539
X2.6756Y-4.5539
X2.9614Y-4.3289
X2.9614Y-4.6531
X3.0356Y-5.1039
X3.0356Y-5.2039
X3.0356Y-5.3039
X3.0372Y-3.4289
X3.0372Y-3.5289
X3.0372Y-3.77
X3.0372Y-3.87
X3.0372Y-3.97
X3.0614Y-4.3289
X3.0614Y-4.6531
X3.6356Y-4.77
X3.6356Y-4.87
X3.6356Y-4.97
X3.6364Y-3.1281
X3.6364Y-3.5539
X3.6364Y-3.9031
X3.6364Y-5.2289
X3.6364Y-5.3289
X3.6364Y-5.4289
X3.7364Y-3.1281
X3.7364Y-3.5539
X3.7364Y-3.9031
X3.8364Y-3.1281
X3.8364Y-3.5539
X3.8364Y-3.9031
X3.8372Y-4.2539
X3.8372Y-4.3539
X3.8372Y-4.4539
X3.8372Y-4.5539
X3.9364Y-3.1281
X3.9364Y-3.5539
X4.0364Y-3.1281
X4.0364Y-3.5539
X4.1364Y-3.1281
X4.1364Y-3.5539
X4.47Y-3.6134
X4.47Y-3.9634
X4.47Y-4.9392
X4.5614Y-2.8781
X4.57Y-3.6134
X4.57Y-3.9634
X4.57Y-4.9392
X4.6364Y-5.4589
X4.6614Y-2.8781
X4.67Y-3.6134
X4.67Y-3.9634
X4.67Y-4.9392
X4.7364Y-5.4589
X4.7614Y-2.8781
X4.77Y-3.6134
X4.77Y-3.9634
X4.77Y-4.9392
X4.81Y-4.32
X4.81Y-4.42
X4.81Y-4.52
X4.8364Y-5.4589
X4.8614Y-2.8781
X5.4114Y-3.8797
X5.48Y-3.3539
X5.4864Y-2.6273
X5.4864Y-2.9531
X5.5Y-4.3
X5.5064Y-4.6281
X5.5064Y-4.9531
X5.5064Y-5.2781
X5.5064Y-5.6281
X5.5064Y-5.9781
X5.5114Y-3.8797
X5.58Y-3.3539
X5.5864Y-2.6273
X5.5864Y-2.9531
X5.6Y-4.3
X5.6064Y-4.6281
X5.6064Y-4.9531
X5.6064Y-5.2781
X5.6064Y-5.6281
X5.6064Y-5.9781
X5.6114Y-3.8797
X5.68Y-3.3539
X5.7Y-4.3
X5.7064Y-4.6281
X5.7064Y-4.9531
X5.7064Y-5.2781
X5.7064Y-5.6281
X5.7064Y-5.9781
X5.7114Y-3.8797
X5.78Y-3.3539
X5.8Y-4.3
X5.8064Y-4.6281
X5.8064Y-4.9531
X5.8064Y-5.2781
X5.8064Y-5.6281
X5.8064Y-5.9781
T8
X3.3088Y-1.66
X3.5056Y-1.66
T9
X2.6864Y-1.6039
X2.6864Y-6.55
X5.8Y-1.6039
X5.8Y-6.55
M30
