%TF.GenerationSoftware,KiCad,Pcbnew,8.0.7-8.0.7-0~ubuntu22.04.1*%
%TF.CreationDate,2025-01-26T02:20:42+01:00*%
%TF.ProjectId,Electrobot_H755,456c6563-7472-46f6-926f-745f48373535,rev?*%
%TF.SameCoordinates,Original*%
%TF.FileFunction,Soldermask,Top*%
%TF.FilePolarity,Negative*%
%FSLAX46Y46*%
G04 Gerber Fmt 4.6, Leading zero omitted, Abs format (unit mm)*
G04 Created by KiCad (PCBNEW 8.0.7-8.0.7-0~ubuntu22.04.1) date 2025-01-26 02:20:42*
%MOMM*%
%LPD*%
G01*
G04 APERTURE LIST*
G04 Aperture macros list*
%AMRoundRect*
0 Rectangle with rounded corners*
0 $1 Rounding radius*
0 $2 $3 $4 $5 $6 $7 $8 $9 X,Y pos of 4 corners*
0 Add a 4 corners polygon primitive as box body*
4,1,4,$2,$3,$4,$5,$6,$7,$8,$9,$2,$3,0*
0 Add four circle primitives for the rounded corners*
1,1,$1+$1,$2,$3*
1,1,$1+$1,$4,$5*
1,1,$1+$1,$6,$7*
1,1,$1+$1,$8,$9*
0 Add four rect primitives between the rounded corners*
20,1,$1+$1,$2,$3,$4,$5,0*
20,1,$1+$1,$4,$5,$6,$7,0*
20,1,$1+$1,$6,$7,$8,$9,0*
20,1,$1+$1,$8,$9,$2,$3,0*%
G04 Aperture macros list end*
%ADD10RoundRect,0.250000X-0.325000X-0.650000X0.325000X-0.650000X0.325000X0.650000X-0.325000X0.650000X0*%
%ADD11O,1.700000X1.700000*%
%ADD12RoundRect,0.250000X0.312500X0.625000X-0.312500X0.625000X-0.312500X-0.625000X0.312500X-0.625000X0*%
%ADD13RoundRect,0.250000X-0.312500X-0.625000X0.312500X-0.625000X0.312500X0.625000X-0.312500X0.625000X0*%
%ADD14RoundRect,0.250000X0.325000X0.650000X-0.325000X0.650000X-0.325000X-0.650000X0.325000X-0.650000X0*%
%ADD15RoundRect,0.250000X0.650000X-0.325000X0.650000X0.325000X-0.650000X0.325000X-0.650000X-0.325000X0*%
%ADD16C,6.400000*%
%ADD17RoundRect,0.250000X-0.625000X0.312500X-0.625000X-0.312500X0.625000X-0.312500X0.625000X0.312500X0*%
%ADD18C,3.000000*%
%ADD19C,1.700000*%
%ADD20R,1.530000X1.530000*%
%ADD21C,1.530000*%
%ADD22RoundRect,0.250000X0.625000X-0.312500X0.625000X0.312500X-0.625000X0.312500X-0.625000X-0.312500X0*%
%ADD23RoundRect,0.250000X-0.650000X0.325000X-0.650000X-0.325000X0.650000X-0.325000X0.650000X0.325000X0*%
%ADD24RoundRect,0.250000X-0.620000X-0.845000X0.620000X-0.845000X0.620000X0.845000X-0.620000X0.845000X0*%
%ADD25O,1.740000X2.190000*%
%ADD26RoundRect,0.250000X-0.845000X0.620000X-0.845000X-0.620000X0.845000X-0.620000X0.845000X0.620000X0*%
%ADD27O,2.190000X1.740000*%
%ADD28RoundRect,0.250000X0.845000X-0.620000X0.845000X0.620000X-0.845000X0.620000X-0.845000X-0.620000X0*%
%ADD29R,1.500000X2.500000*%
%ADD30O,1.500000X2.500000*%
%ADD31O,2.600000X1.600000*%
%ADD32RoundRect,0.250000X0.620000X0.845000X-0.620000X0.845000X-0.620000X-0.845000X0.620000X-0.845000X0*%
%ADD33R,1.700000X1.700000*%
%ADD34R,3.000000X3.000000*%
%ADD35O,1.600000X2.600000*%
G04 APERTURE END LIST*
D10*
%TO.C,C18*%
X113333000Y-95504000D03*
X116283000Y-95504000D03*
%TD*%
D11*
%TO.C,*%
X86360000Y-165100000D03*
%TD*%
%TO.C,*%
X111760000Y-162560000D03*
%TD*%
%TO.C,*%
X127000000Y-165100000D03*
%TD*%
%TO.C,*%
X127000000Y-157480000D03*
%TD*%
D12*
%TO.C,R34*%
X137606500Y-95250000D03*
X134681500Y-95250000D03*
%TD*%
D10*
%TO.C,C3*%
X120699000Y-132842000D03*
X123649000Y-132842000D03*
%TD*%
D11*
%TO.C,*%
X99060000Y-162560000D03*
%TD*%
%TO.C,*%
X104140000Y-160020000D03*
%TD*%
%TO.C,*%
X99060000Y-165100000D03*
%TD*%
D10*
%TO.C,C1*%
X83361000Y-52832000D03*
X86311000Y-52832000D03*
%TD*%
D11*
%TO.C,*%
X93980000Y-167640000D03*
%TD*%
%TO.C,*%
X132080000Y-160020000D03*
%TD*%
%TO.C,*%
X88900000Y-160020000D03*
%TD*%
D12*
%TO.C,R15*%
X126684500Y-82042000D03*
X123759500Y-82042000D03*
%TD*%
D11*
%TO.C,*%
X86360000Y-167640000D03*
%TD*%
%TO.C,*%
X114300000Y-162560000D03*
%TD*%
%TO.C,*%
X106680000Y-160020000D03*
%TD*%
%TO.C,*%
X129540000Y-162560000D03*
%TD*%
%TO.C,*%
X106680000Y-167640000D03*
%TD*%
%TO.C,*%
X104140000Y-165100000D03*
%TD*%
D12*
%TO.C,R3*%
X121858500Y-97536000D03*
X118933500Y-97536000D03*
%TD*%
D11*
%TO.C,*%
X111760000Y-165100000D03*
%TD*%
%TO.C,*%
X116840000Y-165100000D03*
%TD*%
%TO.C,*%
X96520000Y-160020000D03*
%TD*%
%TO.C,*%
X91440000Y-157480000D03*
%TD*%
%TO.C,*%
X129540000Y-160020000D03*
%TD*%
%TO.C,*%
X83820000Y-162560000D03*
%TD*%
%TO.C,*%
X116840000Y-157480000D03*
%TD*%
D13*
%TO.C,R38*%
X134681500Y-89662000D03*
X137606500Y-89662000D03*
%TD*%
D14*
%TO.C,C13*%
X103837000Y-72136000D03*
X100887000Y-72136000D03*
%TD*%
D11*
%TO.C,*%
X91440000Y-165100000D03*
%TD*%
%TO.C,*%
X119380000Y-160020000D03*
%TD*%
%TO.C,*%
X124460000Y-160020000D03*
%TD*%
D15*
%TO.C,C8*%
X135890000Y-85549000D03*
X135890000Y-82599000D03*
%TD*%
D11*
%TO.C,*%
X132080000Y-167640000D03*
%TD*%
%TO.C,*%
X121920000Y-167640000D03*
%TD*%
D12*
%TO.C,R31*%
X81472500Y-104648000D03*
X78547500Y-104648000D03*
%TD*%
D11*
%TO.C,*%
X119380000Y-167640000D03*
%TD*%
%TO.C,*%
X124460000Y-162560000D03*
%TD*%
%TO.C,*%
X91440000Y-162560000D03*
%TD*%
%TO.C,*%
X99060000Y-160020000D03*
%TD*%
%TO.C,*%
X104140000Y-162560000D03*
%TD*%
%TO.C,*%
X104140000Y-157480000D03*
%TD*%
%TO.C,*%
X83820000Y-160020000D03*
%TD*%
%TO.C,*%
X88900000Y-165100000D03*
%TD*%
%TO.C,*%
X132080000Y-157480000D03*
%TD*%
%TO.C,*%
X109220000Y-167640000D03*
%TD*%
%TO.C,*%
X114300000Y-160020000D03*
%TD*%
%TO.C,*%
X116840000Y-160020000D03*
%TD*%
D13*
%TO.C,R5*%
X118643500Y-88293000D03*
X121568500Y-88293000D03*
%TD*%
D12*
%TO.C,R7*%
X126684500Y-84836000D03*
X123759500Y-84836000D03*
%TD*%
D11*
%TO.C,*%
X93980000Y-160020000D03*
%TD*%
D13*
%TO.C,R2*%
X134427500Y-101600000D03*
X137352500Y-101600000D03*
%TD*%
D11*
%TO.C,*%
X93980000Y-165100000D03*
%TD*%
%TO.C,*%
X119380000Y-157480000D03*
%TD*%
D12*
%TO.C,R13*%
X124144500Y-119126000D03*
X121219500Y-119126000D03*
%TD*%
%TO.C,R16*%
X126430500Y-66294000D03*
X123505500Y-66294000D03*
%TD*%
D14*
%TO.C,C20*%
X97741000Y-101854000D03*
X94791000Y-101854000D03*
%TD*%
D11*
%TO.C,*%
X83820000Y-165100000D03*
%TD*%
%TO.C,*%
X99060000Y-157480000D03*
%TD*%
%TO.C,*%
X86360000Y-162560000D03*
%TD*%
%TO.C,*%
X99060000Y-167640000D03*
%TD*%
%TO.C,*%
X96520000Y-162560000D03*
%TD*%
%TO.C,*%
X124460000Y-165100000D03*
%TD*%
D12*
%TO.C,R21*%
X115508500Y-149098000D03*
X112583500Y-149098000D03*
%TD*%
D11*
%TO.C,*%
X88900000Y-162560000D03*
%TD*%
D12*
%TO.C,R19*%
X129478500Y-149098000D03*
X126553500Y-149098000D03*
%TD*%
D16*
%TO.C,H2*%
X68235000Y-166370000D03*
%TD*%
D11*
%TO.C,*%
X83820000Y-167640000D03*
%TD*%
%TO.C,*%
X106680000Y-162560000D03*
%TD*%
D17*
%TO.C,R14*%
X124460000Y-124521500D03*
X124460000Y-127446500D03*
%TD*%
D13*
%TO.C,R12*%
X123505500Y-69342000D03*
X126430500Y-69342000D03*
%TD*%
D11*
%TO.C,*%
X121920000Y-157480000D03*
%TD*%
%TO.C,*%
X111760000Y-160020000D03*
%TD*%
%TO.C,*%
X101600000Y-165100000D03*
%TD*%
%TO.C,*%
X81280000Y-160020000D03*
%TD*%
%TO.C,*%
X91440000Y-167640000D03*
%TD*%
D16*
%TO.C,H4*%
X147320000Y-166370000D03*
%TD*%
%TO.C,H1*%
X68235000Y-40739000D03*
%TD*%
D11*
%TO.C,*%
X127000000Y-160020000D03*
%TD*%
%TO.C,*%
X109220000Y-160020000D03*
%TD*%
%TO.C,*%
X121920000Y-160020000D03*
%TD*%
%TO.C,*%
X83820000Y-157480000D03*
%TD*%
%TO.C,*%
X114300000Y-157480000D03*
%TD*%
D12*
%TO.C,R23*%
X123636500Y-135382000D03*
X120711500Y-135382000D03*
%TD*%
D11*
%TO.C,*%
X116840000Y-162560000D03*
%TD*%
%TO.C,*%
X81280000Y-165100000D03*
%TD*%
D12*
%TO.C,R8*%
X126684500Y-94742000D03*
X123759500Y-94742000D03*
%TD*%
D13*
%TO.C,R33*%
X88453500Y-113284000D03*
X91378500Y-113284000D03*
%TD*%
%TO.C,R10*%
X121219500Y-121920000D03*
X124144500Y-121920000D03*
%TD*%
D11*
%TO.C,*%
X101600000Y-162560000D03*
%TD*%
D18*
%TO.C,U1*%
X83820000Y-64770000D03*
X85090000Y-140970000D03*
X130800000Y-140980000D03*
X132100000Y-66080000D03*
D19*
X76200000Y-40640000D03*
X76200000Y-43180000D03*
X139700000Y-40640000D03*
X139700000Y-43180000D03*
D20*
X129540000Y-69591000D03*
D21*
X132080000Y-69591000D03*
X129540000Y-72131000D03*
X132080000Y-72131000D03*
X129540000Y-74671000D03*
X132080000Y-74671000D03*
X129540000Y-77211000D03*
X132080000Y-77211000D03*
X129540000Y-79751000D03*
X132080000Y-79751000D03*
X129540000Y-82291000D03*
X132080000Y-82291000D03*
X129540000Y-84831000D03*
X132080000Y-84831000D03*
X129540000Y-87371000D03*
X132080000Y-87371000D03*
X129540000Y-89911000D03*
X132080000Y-89911000D03*
X129540000Y-92451000D03*
X132080000Y-92451000D03*
D20*
X83820000Y-78735000D03*
D21*
X86360000Y-78735000D03*
X83820000Y-81275000D03*
X86360000Y-81275000D03*
X83820000Y-83815000D03*
X86360000Y-83815000D03*
X83820000Y-86355000D03*
X86360000Y-86355000D03*
X83820000Y-88895000D03*
X86360000Y-88895000D03*
X83820000Y-91435000D03*
X86360000Y-91435000D03*
X83820000Y-93975000D03*
X86360000Y-93975000D03*
X83820000Y-96515000D03*
X86360000Y-96515000D03*
D20*
X83820000Y-101595000D03*
D21*
X86360000Y-101595000D03*
X83820000Y-104135000D03*
X86360000Y-104135000D03*
X83820000Y-106675000D03*
X86360000Y-106675000D03*
X83820000Y-109215000D03*
X86360000Y-109215000D03*
X83820000Y-111755000D03*
X86360000Y-111755000D03*
X83820000Y-114295000D03*
X86360000Y-114295000D03*
X83820000Y-116835000D03*
X86360000Y-116835000D03*
X83820000Y-119375000D03*
X86360000Y-119375000D03*
X83820000Y-121915000D03*
X86360000Y-121915000D03*
X83820000Y-124455000D03*
X86360000Y-124455000D03*
X83820000Y-126995000D03*
X86360000Y-126995000D03*
X83820000Y-129535000D03*
X86360000Y-129535000D03*
X83820000Y-132075000D03*
X86360000Y-132075000D03*
X83820000Y-134615000D03*
X86360000Y-134615000D03*
X83820000Y-137155000D03*
X86360000Y-137155000D03*
D20*
X129540000Y-96515000D03*
D21*
X132080000Y-96515000D03*
X129540000Y-99055000D03*
X132080000Y-99055000D03*
X129540000Y-101595000D03*
X132080000Y-101595000D03*
X129540000Y-104135000D03*
X132080000Y-104135000D03*
X129540000Y-106675000D03*
X132080000Y-106675000D03*
X129540000Y-109215000D03*
X132080000Y-109215000D03*
X129540000Y-111755000D03*
X132080000Y-111755000D03*
X129540000Y-114295000D03*
X132080000Y-114295000D03*
X129540000Y-116835000D03*
X132080000Y-116835000D03*
X129540000Y-119375000D03*
X132080000Y-119375000D03*
X129540000Y-121915000D03*
X132080000Y-121915000D03*
X129540000Y-124455000D03*
X132080000Y-124455000D03*
X129540000Y-126995000D03*
X132080000Y-126995000D03*
X129540000Y-129535000D03*
X132080000Y-129535000D03*
X129540000Y-132075000D03*
X132080000Y-132075000D03*
X129540000Y-134615000D03*
X132080000Y-134615000D03*
X129540000Y-137155000D03*
X132080000Y-137155000D03*
D20*
X76200000Y-68575000D03*
D21*
X78740000Y-68575000D03*
X76200000Y-71115000D03*
X78740000Y-71115000D03*
X76200000Y-73655000D03*
X78740000Y-73655000D03*
X76200000Y-76195000D03*
X78740000Y-76195000D03*
%TD*%
D11*
%TO.C,*%
X134620000Y-167640000D03*
%TD*%
%TO.C,*%
X93980000Y-157480000D03*
%TD*%
%TO.C,*%
X124460000Y-157480000D03*
%TD*%
%TO.C,*%
X78740000Y-160020000D03*
%TD*%
%TO.C,*%
X132080000Y-162560000D03*
%TD*%
%TO.C,*%
X114300000Y-165100000D03*
%TD*%
%TO.C,*%
X124460000Y-167640000D03*
%TD*%
%TO.C,*%
X101600000Y-157480000D03*
%TD*%
D10*
%TO.C,C15*%
X146607000Y-130556000D03*
X149557000Y-130556000D03*
%TD*%
D13*
%TO.C,R11*%
X120965500Y-76962000D03*
X123890500Y-76962000D03*
%TD*%
%TO.C,R9*%
X118425500Y-129540000D03*
X121350500Y-129540000D03*
%TD*%
D11*
%TO.C,*%
X134620000Y-160020000D03*
%TD*%
D22*
%TO.C,R25*%
X70866000Y-104078500D03*
X70866000Y-101153500D03*
%TD*%
D14*
%TO.C,C6*%
X76151000Y-106680000D03*
X73201000Y-106680000D03*
%TD*%
D12*
%TO.C,R36*%
X108396500Y-149098000D03*
X105471500Y-149098000D03*
%TD*%
D23*
%TO.C,C5*%
X93726000Y-41959000D03*
X93726000Y-44909000D03*
%TD*%
D11*
%TO.C,*%
X78740000Y-157480000D03*
%TD*%
D14*
%TO.C,C9*%
X120601000Y-141986000D03*
X117651000Y-141986000D03*
%TD*%
D11*
%TO.C,*%
X86360000Y-160020000D03*
%TD*%
%TO.C,*%
X109220000Y-157480000D03*
%TD*%
%TO.C,*%
X81280000Y-162560000D03*
%TD*%
%TO.C,*%
X129540000Y-165100000D03*
%TD*%
%TO.C,*%
X78740000Y-162560000D03*
%TD*%
%TO.C,*%
X111760000Y-157480000D03*
%TD*%
D23*
%TO.C,C2*%
X74168000Y-95553000D03*
X74168000Y-98503000D03*
%TD*%
D11*
%TO.C,*%
X121920000Y-162560000D03*
%TD*%
%TO.C,*%
X114300000Y-167640000D03*
%TD*%
%TO.C,*%
X106680000Y-165100000D03*
%TD*%
%TO.C,*%
X129540000Y-167640000D03*
%TD*%
D12*
%TO.C,R35*%
X137606500Y-92202000D03*
X134681500Y-92202000D03*
%TD*%
D11*
%TO.C,*%
X109220000Y-165100000D03*
%TD*%
%TO.C,*%
X86360000Y-157480000D03*
%TD*%
%TO.C,*%
X88900000Y-167640000D03*
%TD*%
%TO.C,*%
X93980000Y-162560000D03*
%TD*%
%TO.C,*%
X91440000Y-160020000D03*
%TD*%
D13*
%TO.C,R27*%
X70927500Y-115570000D03*
X73852500Y-115570000D03*
%TD*%
D11*
%TO.C,*%
X134620000Y-165100000D03*
%TD*%
%TO.C,*%
X119380000Y-165100000D03*
%TD*%
%TO.C,*%
X119380000Y-162560000D03*
%TD*%
D22*
%TO.C,R18*%
X144653000Y-158754000D03*
X144653000Y-155829000D03*
%TD*%
D11*
%TO.C,*%
X127000000Y-162560000D03*
%TD*%
D13*
%TO.C,R6*%
X123759500Y-91948000D03*
X126684500Y-91948000D03*
%TD*%
D11*
%TO.C,*%
X121920000Y-165100000D03*
%TD*%
D13*
%TO.C,R1*%
X118643500Y-103787000D03*
X121568500Y-103787000D03*
%TD*%
D12*
%TO.C,R20*%
X122366500Y-149098000D03*
X119441500Y-149098000D03*
%TD*%
D11*
%TO.C,*%
X129540000Y-157480000D03*
%TD*%
%TO.C,*%
X104140000Y-167640000D03*
%TD*%
D10*
%TO.C,C7*%
X67867000Y-121920000D03*
X70817000Y-121920000D03*
%TD*%
D11*
%TO.C,*%
X96520000Y-165100000D03*
%TD*%
D10*
%TO.C,C19*%
X92251000Y-85090000D03*
X95201000Y-85090000D03*
%TD*%
D11*
%TO.C,*%
X127000000Y-167640000D03*
%TD*%
%TO.C,*%
X96520000Y-157480000D03*
%TD*%
%TO.C,*%
X134620000Y-157480000D03*
%TD*%
%TO.C,*%
X132080000Y-165100000D03*
%TD*%
D12*
%TO.C,R32*%
X94172500Y-110490000D03*
X91247500Y-110490000D03*
%TD*%
%TO.C,R30*%
X103824500Y-69088000D03*
X100899500Y-69088000D03*
%TD*%
D22*
%TO.C,R17*%
X141605000Y-158754000D03*
X141605000Y-155829000D03*
%TD*%
D11*
%TO.C,*%
X78740000Y-165100000D03*
%TD*%
%TO.C,*%
X101600000Y-160020000D03*
%TD*%
%TO.C,*%
X116840000Y-167640000D03*
%TD*%
%TO.C,*%
X81280000Y-157480000D03*
%TD*%
%TO.C,*%
X78740000Y-167640000D03*
%TD*%
D10*
%TO.C,C14*%
X113079000Y-122174000D03*
X116029000Y-122174000D03*
%TD*%
D16*
%TO.C,H3*%
X147320000Y-40739000D03*
%TD*%
D23*
%TO.C,C16*%
X81280000Y-73455000D03*
X81280000Y-76405000D03*
%TD*%
D11*
%TO.C,*%
X111760000Y-167640000D03*
%TD*%
%TO.C,*%
X109220000Y-162560000D03*
%TD*%
D12*
%TO.C,R4*%
X81218500Y-121666000D03*
X78293500Y-121666000D03*
%TD*%
D11*
%TO.C,*%
X81280000Y-167640000D03*
%TD*%
%TO.C,*%
X134620000Y-162560000D03*
%TD*%
%TO.C,*%
X101600000Y-167640000D03*
%TD*%
%TO.C,*%
X88900000Y-157480000D03*
%TD*%
%TO.C,*%
X96520000Y-167640000D03*
%TD*%
%TO.C,*%
X106680000Y-157480000D03*
%TD*%
D24*
%TO.C,J12*%
X139863000Y-151844000D03*
D25*
X142403000Y-151844000D03*
X144943000Y-151844000D03*
X147483000Y-151844000D03*
%TD*%
D24*
%TO.C,J10*%
X115860000Y-73104000D03*
D25*
X118400000Y-73104000D03*
X120940000Y-73104000D03*
X123480000Y-73104000D03*
%TD*%
D24*
%TO.C,J31*%
X92365000Y-99139000D03*
D25*
X94905000Y-99139000D03*
X97445000Y-99139000D03*
%TD*%
D26*
%TO.C,J4*%
X122174000Y-109728000D03*
D27*
X122174000Y-112268000D03*
X122174000Y-114808000D03*
%TD*%
D28*
%TO.C,J5*%
X77105000Y-134719000D03*
D27*
X77105000Y-132179000D03*
X77105000Y-129639000D03*
%TD*%
D28*
%TO.C,J2*%
X92345000Y-126238000D03*
D27*
X92345000Y-123698000D03*
X92345000Y-121158000D03*
%TD*%
D28*
%TO.C,J26*%
X67961000Y-115669000D03*
D27*
X67961000Y-113129000D03*
X67961000Y-110589000D03*
%TD*%
D24*
%TO.C,J30*%
X139355000Y-75009000D03*
D25*
X141895000Y-75009000D03*
%TD*%
D24*
%TO.C,J29*%
X139355000Y-66734000D03*
D25*
X141895000Y-66734000D03*
%TD*%
D29*
%TO.C,U4*%
X99242500Y-41669000D03*
D30*
X101782500Y-41669000D03*
X104322500Y-41669000D03*
%TD*%
D24*
%TO.C,J11*%
X139863000Y-125809000D03*
D25*
X142403000Y-125809000D03*
X144943000Y-125809000D03*
X147483000Y-125809000D03*
%TD*%
D24*
%TO.C,J34*%
X92365000Y-90269000D03*
D25*
X94905000Y-90269000D03*
X97445000Y-90269000D03*
X99985000Y-90269000D03*
X102525000Y-90269000D03*
X105065000Y-90269000D03*
%TD*%
D24*
%TO.C,J33*%
X92365000Y-79454000D03*
D25*
X94905000Y-79454000D03*
X97445000Y-79454000D03*
X99985000Y-79454000D03*
X102525000Y-79454000D03*
X105065000Y-79454000D03*
%TD*%
D31*
%TO.C,C11*%
X114482500Y-52959000D03*
X114482500Y-56459000D03*
%TD*%
D24*
%TO.C,J14*%
X139863000Y-117554000D03*
D25*
X142403000Y-117554000D03*
X144943000Y-117554000D03*
X147483000Y-117554000D03*
%TD*%
D26*
%TO.C,J36*%
X77145000Y-87094000D03*
D27*
X77145000Y-89634000D03*
%TD*%
D19*
%TO.C,J24*%
X129286000Y-40318000D03*
X131826000Y-40318000D03*
X134366000Y-40318000D03*
%TD*%
D24*
%TO.C,J13*%
X139863000Y-142954000D03*
D25*
X142403000Y-142954000D03*
X144943000Y-142954000D03*
X147483000Y-142954000D03*
%TD*%
D28*
%TO.C,J16*%
X67961000Y-103604000D03*
D27*
X67961000Y-101064000D03*
X67961000Y-98524000D03*
%TD*%
D19*
%TO.C,J21*%
X129286000Y-46990000D03*
X131826000Y-46990000D03*
X134366000Y-46990000D03*
%TD*%
D26*
%TO.C,J32*%
X77145000Y-95758000D03*
D27*
X77145000Y-98298000D03*
X77145000Y-100838000D03*
%TD*%
D19*
%TO.C,J25*%
X129282500Y-53594000D03*
X131822500Y-53594000D03*
X134362500Y-53594000D03*
%TD*%
%TO.C,J20*%
X129286000Y-56896000D03*
X131826000Y-56896000D03*
X134366000Y-56896000D03*
%TD*%
D24*
%TO.C,J17*%
X139192000Y-85189000D03*
D25*
X141732000Y-85189000D03*
X144272000Y-85189000D03*
X146812000Y-85189000D03*
%TD*%
D32*
%TO.C,J22*%
X145070000Y-98544000D03*
D25*
X142530000Y-98544000D03*
X139990000Y-98544000D03*
X137450000Y-98544000D03*
%TD*%
D29*
%TO.C,U2*%
X88447500Y-56134000D03*
D30*
X85907500Y-56134000D03*
X83367500Y-56134000D03*
%TD*%
D26*
%TO.C,J6*%
X97465000Y-108049000D03*
D27*
X97465000Y-110589000D03*
X97465000Y-113129000D03*
X97465000Y-115669000D03*
%TD*%
D33*
%TO.C,JP1*%
X122845000Y-47879000D03*
D11*
X122845000Y-50419000D03*
%TD*%
D24*
%TO.C,J35*%
X139863000Y-134064000D03*
D25*
X142403000Y-134064000D03*
X144943000Y-134064000D03*
X147483000Y-134064000D03*
%TD*%
D24*
%TO.C,J8*%
X113538000Y-91781000D03*
D25*
X116078000Y-91781000D03*
X118618000Y-91781000D03*
X121158000Y-91781000D03*
%TD*%
D19*
%TO.C,J23*%
X129286000Y-43654000D03*
X131826000Y-43654000D03*
X134366000Y-43654000D03*
%TD*%
%TO.C,J19*%
X129286000Y-50292000D03*
X131826000Y-50292000D03*
X134366000Y-50292000D03*
%TD*%
D24*
%TO.C,J7*%
X113538000Y-100671000D03*
D25*
X116078000Y-100671000D03*
X118618000Y-100671000D03*
X121158000Y-100671000D03*
%TD*%
D26*
%TO.C,J3*%
X92365000Y-132814000D03*
D27*
X92365000Y-135354000D03*
X92365000Y-137894000D03*
%TD*%
D34*
%TO.C,J1*%
X84042500Y-42164000D03*
D18*
X89042500Y-42164000D03*
%TD*%
D35*
%TO.C,C4*%
X103795000Y-65659000D03*
X107295000Y-65659000D03*
%TD*%
D31*
%TO.C,C12*%
X114482500Y-41684000D03*
X114482500Y-45184000D03*
%TD*%
D24*
%TO.C,J37*%
X139700000Y-109220000D03*
D25*
X142240000Y-109220000D03*
X144780000Y-109220000D03*
X147320000Y-109220000D03*
%TD*%
D32*
%TO.C,J15*%
X122845000Y-138656000D03*
D25*
X120305000Y-138656000D03*
X117765000Y-138656000D03*
%TD*%
D19*
%TO.C,J18*%
X129286000Y-60198000D03*
X131826000Y-60198000D03*
X134366000Y-60198000D03*
%TD*%
D29*
%TO.C,U3*%
X99242500Y-52546500D03*
D30*
X101782500Y-52546500D03*
X104322500Y-52546500D03*
%TD*%
D35*
%TO.C,C10*%
X91885000Y-63754000D03*
X95385000Y-63754000D03*
%TD*%
D24*
%TO.C,J9*%
X113538000Y-125456000D03*
D25*
X116078000Y-125456000D03*
X118618000Y-125456000D03*
X121158000Y-125456000D03*
%TD*%
D32*
%TO.C,J27*%
X77760000Y-118189000D03*
D25*
X75220000Y-118189000D03*
%TD*%
D32*
%TO.C,J28*%
X77760000Y-109954000D03*
D25*
X75220000Y-109954000D03*
%TD*%
M02*
